<svg xmlns="http://www.w3.org/2000/svg" viewBox="0 0 960 580" shape-rendering="crispEdges">
  <rect width="960" height="580" fill="none"/>
  <rect x="132" y="172" width="696" height="42" fill="#8d6b58"/>
  <rect x="150" y="214" width="660" height="238" fill="#755847"/>
  <rect x="150" y="214" width="660" height="10" fill="#997560"/>
  <rect x="184" y="248" width="160" height="164" fill="#7d5f4e"/>
  <rect x="400" y="248" width="160" height="164" fill="#6c5141"/>
  <rect x="616" y="248" width="160" height="164" fill="#7d5f4e"/>
  <rect x="646" y="340" width="100" height="52" fill="#8d6b58"/>
  <rect x="214" y="268" width="100" height="52" fill="#8d6b58"/>
  <rect x="214" y="340" width="100" height="52" fill="#8d6b58"/>
  <rect x="630" y="266" width="116" height="56" fill="#3f3028"/>
  <rect x="666" y="260" width="100" height="52" fill="#8d6b58"/>
  <rect x="732" y="280" width="10" height="12" fill="#d4bf9e"/>
  <rect x="712" y="360" width="10" height="12" fill="#d4bf9e"/>
  <rect x="280" y="288" width="10" height="12" fill="#d4bf9e"/>
  <rect x="280" y="360" width="10" height="12" fill="#d4bf9e"/>
  <rect x="150" y="214" width="660" height="238" fill="none" stroke="#4f3b30" stroke-width="8"/>
  <rect x="448" y="148" width="136" height="42" fill="#eadcbd"/>
  <rect x="454" y="154" width="58" height="30" fill="#f5ebd4"/>
  <rect x="520" y="154" width="58" height="30" fill="#f0e4ca"/>
  <rect x="514" y="148" width="6" height="42" fill="#8a6957"/>
  <rect x="175" y="452" width="36" height="82" fill="#654b3d"/>
  <rect x="749" y="452" width="36" height="82" fill="#654b3d"/>
  <rect x="130" y="534" width="700" height="12" fill="#60473b"/>
  <rect x="130" y="546" width="700" height="10" fill="#b18e75"/>
</svg>
